<svg version="1" xmlns="http://www.w3.org/2000/svg" width="317.333" height="317.333" viewBox="0 0 238.000000 238.000000"><path d="M113 94.5V158h11V31h-11v63.5zM48.9 60.1c-12.7 1.8-25.1 10.7-30.8 22-12.1 24.3-.7 53 24.3 61.4 11.2 3.7 27.1 1.4 36.9-5.4 13-8.9 20.3-26.3 17.8-42-3.9-24-24.5-39.4-48.2-36zm17 11c6.9 2 13.2 7.7 17.1 15.3 3.2 6.4 3.5 7.6 3.5 16 0 8.3-.3 9.8-3.3 15.8-3.7 7.5-7.3 11-15.2 14.7-4.4 2-6.9 2.5-13 2.4-12.7-.1-21.9-5.8-27.6-17-2.6-5.3-2.9-6.7-2.9-15.8 0-9 .3-10.5 2.8-15.5 3.4-6.6 6.8-10.4 12.3-13.6 7.3-4.3 16.8-5.2 26.3-2.3zM167.8 61.9c-7.3 2.4-11.6 5.1-16.8 10.7-13.5 14.7-14.6 40.8-2.4 56.8 10.1 13.2 27.3 18.7 43.2 13.8 6.8-2.2 14.2-7 17.5-11.4l2.2-3 .5 6.9.5 6.8 4.8.3 4.7.3V61.9l-4.7.3-4.8.3-.5 6.8-.5 6.9-2.2-3c-7.9-10.8-26.9-15.9-41.5-11.3zm26.7 10.5c5.9 2.7 11.9 9 14.8 15.5 3.1 6.5 3 22.5 0 29.2-2.9 6.4-8.5 12.3-14.6 15.3-4.2 2.2-6.5 2.6-13.2 2.6-7.2 0-9-.4-14.5-3.1-10.6-5.3-15.9-15.2-15.9-29.4s5.3-24.1 15.9-29.4c5.5-2.7 7.3-3.1 14.4-3.1 6.4 0 9.2.5 13.1 2.4zM185 164.5c-9.1 9.4-28.4 19.9-43.6 23.7-12.7 3.2-34.1 3.2-46.8 0-14.2-3.6-27.9-10.6-39.9-20.5l-4.8-4-3.2 3.2-3.2 3.2 4.5 4.1c9.4 8.5 22.6 16.1 35.4 20.4 21.2 7.3 48 7.3 69.2 0 13.7-4.6 29.7-14.2 38.2-22.9l4.2-4.3-3.3-3.2-3.3-3.2-3.4 3.5z"/></svg>